Coordinates
version=1
nRows=12
nColumns=46
inDegrees=yes

Units are S.I. units (second, meters, Newtons, ...)
Angles are in degrees.

endheader
time	pelvis_tilt	pelvis_list	pelvis_rotation	pelvis_tx	pelvis_ty	pelvis_tz	bb_angle	bb_tx	bb_ty	bb_tz	hip_flexion_r	hip_adduction_r	hip_rotation_r	knee_angle_r	knee_angle_r_beta	ankle_angle_r	subtalar_angle_r	mtp_angle_r	crank_angle_r	hip_flexion_l	hip_adduction_l	hip_rotation_l	knee_angle_l	knee_angle_l_beta	ankle_angle_l	subtalar_angle_l	mtp_angle_l	crank_angle_l	lumbar_extension	lumbar_bending	lumbar_rotation	arm_flex_r	arm_add_r	arm_rot_r	elbow_flex_r	pro_sup_r	wrist_flex_r	wrist_dev_r	arm_flex_l	arm_add_l	arm_rot_l	elbow_flex_l	pro_sup_l	wrist_flex_l	wrist_dev_l
      7.50000000	    -22.65393351	      8.48665987	      4.69079910	      0.38503887	      1.21236893	     -0.23955148	      0.00000000	      0.50000000	      0.00000000	      0.25000000	     32.46240722	    -15.33991146	     -8.65681791	     25.82071346	      0.45065647	    -18.81094257	     -0.18382131	      0.00000000	      0.00000000	     70.31150966	     -9.20140565	     -7.06299350	    104.23717452	      1.81928190	      3.46012841	     13.91964376	      0.00000000	      0.00000000	    -58.65254186	     -5.56753679	     -2.61981520	     55.88387954	    -28.43620446	     30.89134133	     64.52329873	     48.64541162	      0.00000000	      0.00000000	     78.54552141	    -12.89010699	     67.32764291	     41.79590104	     50.06902983	      0.00000000	      0.00000000
      7.50500000	    -22.67405749	      8.32490293	      5.48660963	      0.38534259	      1.21246193	     -0.23975038	      0.00000000	      0.50000000	      0.00000000	      0.25000000	     31.26444911	    -15.62430065	     -9.81105208	     25.02188392	      0.43671426	    -19.72114915	      0.59097006	      0.00000000	      0.00000000	     71.32612719	     -8.72537411	     -6.69220777	    104.49243770	      1.82373708	      4.02932967	     13.99824053	      0.00000000	      0.00000000	    -58.75506617	     -5.31279118	     -2.93191571	     55.92851984	    -28.57419892	     30.99395474	     64.19458121	     48.60532988	      0.00000000	      0.00000000	     78.56884156	    -12.92753065	     67.32031788	     42.22482256	     50.13433464	      0.00000000	      0.00000000
      7.51000000	    -22.47450944	      8.29213046	      6.31033122	      0.38549858	      1.21320031	     -0.23958000	      0.00000000	      0.50000000	      0.00000000	      0.25000000	     29.90838025	    -15.98755125	    -10.91357048	     24.40298717	      0.42591247	    -20.34666416	      1.37804629	      0.00000000	      0.00000000	     71.99213205	     -8.17026981	     -6.50743548	    104.55850681	      1.82489020	      4.53755303	     13.99047406	      0.00000000	      0.00000000	    -59.16272785	     -4.85732149	     -4.03496998	     57.27517137	    -27.77217118	     32.58548561	     62.54540626	     48.51878627	      0.00000000	      0.00000000	     78.43027283	    -14.78983759	     66.85260248	     44.80053251	     50.46164499	      0.00000000	      0.00000000
      7.51500000	    -22.75098129	      8.21261063	      6.79732060	      0.38553306	      1.21301786	     -0.23962118	      0.00000000	      0.50000000	      0.00000000	      0.25000000	     29.35817973	    -16.16069450	    -11.43171893	     24.06576140	      0.42002677	    -21.14190240	      1.74288516	      0.00000000	      0.00000000	     73.06609902	     -7.85911488	     -6.44713070	    104.59030221	      1.82544514	      5.29279062	     13.93379079	      0.00000000	      0.00000000	    -58.96791058	     -4.80305339	     -4.27350440	     57.23437086	    -27.82507957	     32.61828615	     62.43177883	     48.50673765	      0.00000000	      0.00000000	     78.43325940	    -14.74678244	     66.79241479	     44.92167138	     50.46860916	      0.00000000	      0.00000000
      7.52000000	    -22.62345964	      8.11698898	      7.62129619	      0.38556068	      1.21390542	     -0.23950493	      0.00000000	      0.50000000	      0.00000000	      0.25000000	     28.28413214	    -16.46155875	    -12.53802297	     23.84534539	      0.41617979	    -21.71131600	      2.29273443	      0.00000000	      0.00000000	     73.67665166	     -7.17828087	     -6.21685998	    104.39424519	      1.82202330	      5.80138211	     14.18257287	      0.00000000	      0.00000000	    -59.27612490	     -4.45728655	     -4.75126179	     57.28592385	    -27.75501559	     32.79029597	     62.04791308	     48.46965364	      0.00000000	      0.00000000	     78.41420427	    -14.87503447	     66.38135172	     45.35442055	     50.46812837	      0.00000000	      0.00000000
      7.52500000	    -22.79400085	      8.00662817	      8.11440641	      0.38544597	      1.21425108	     -0.23927708	      0.00000000	      0.50000000	      0.00000000	      0.25000000	     27.84301405	    -16.59570052	    -12.98646984	     23.94808907	      0.41797300	    -22.22922391	      2.51302393	      0.00000000	      0.00000000	     74.49325303	     -6.77382323	     -6.10713674	    104.18226255	      1.81832350	      6.56763641	     14.05169169	      0.00000000	      0.00000000	    -59.27710924	     -4.49875306	     -4.98347980	     57.17505514	    -27.87389616	     32.83225355	     61.83910132	     48.44544106	      0.00000000	      0.00000000	     78.47920300	    -14.78871859	     66.21116206	     45.63523321	     50.48136054	      0.00000000	      0.00000000
      7.53000000	    -22.82625636	      7.84555607	      8.62073989	      0.38532267	      1.21504250	     -0.23906316	      0.00000000	      0.50000000	      0.00000000	      0.25000000	     27.30391722	    -16.64836284	    -13.39465743	     24.21000483	      0.42254430	    -22.41286641	      2.70369462	      0.00000000	      0.00000000	     75.08095454	     -6.32748382	     -5.94791769	    103.80522875	      1.81174302	      7.29340689	     14.35715212	      0.00000000	      0.00000000	    -59.43426688	     -4.38563784	     -5.18617702	     57.14377671	    -27.97217448	     32.86129866	     61.66560578	     48.42730782	      0.00000000	      0.00000000	     78.49119082	    -14.73933968	     65.76776215	     46.09426616	     50.47742254	      0.00000000	      0.00000000
      7.53500000	    -22.90570475	      7.63533275	      8.95240013	      0.38529187	      1.21572232	     -0.23918427	      0.00000000	      0.50000000	      0.00000000	      0.25000000	     27.03512551	    -16.63028230	    -13.56165591	     24.74755925	      0.43192639	    -22.76916041	      2.69367066	      0.00000000	      0.00000000	     75.64739500	     -6.00841534	     -5.85376329	    103.40854062	      1.80481951	      8.17369542	     14.14347929	      0.00000000	      0.00000000	    -59.51916838	     -4.35435035	     -5.25233099	     57.09805401	    -28.08939703	     32.84361669	     61.55197827	     48.41019953	      0.00000000	      0.00000000	     78.53844702	    -14.59954173	     65.56856662	     46.34911181	     50.48180985	      0.00000000	      0.00000000
      7.54000000	    -22.91723105	      7.49818559	      9.32546292	      0.38510071	      1.21699050	     -0.23915804	      0.00000000	      0.50000000	      0.00000000	      0.25000000	     26.77455206	    -16.66128828	    -13.58351591	     25.43648300	      0.44395038	    -22.88239366	      2.49460564	      0.00000000	      0.00000000	     75.99536742	     -5.61332281	     -5.82060280	    102.76632593	      1.79361075	      8.84807671	     14.16578307	      0.00000000	      0.00000000	    -59.74706887	     -4.28663738	     -5.33607475	     57.07742051	    -28.18066564	     32.80775374	     61.44959728	     48.39145823	      0.00000000	      0.00000000	     78.68312329	    -14.40632838	     65.39353048	     46.54562615	     50.48113085	      0.00000000	      0.00000000
      7.54500000	    -22.91639525	      7.44064282	      9.71745680	      0.38500292	      1.21840822	     -0.23920459	      0.00000000	      0.50000000	      0.00000000	      0.25000000	     26.65153720	    -16.82791018	    -13.66615772	     26.45773752	      0.46177463	    -22.79902653	      2.09789680	      0.00000000	      0.00000000	     76.15599471	     -5.10881428	     -5.82995818	    101.95755075	      1.77949496	      9.63511236	     14.20605890	      0.00000000	      0.00000000	    -60.01731526	     -4.26883096	     -5.45510136	     57.08629910	    -28.33003144	     32.72343027	     61.29876306	     48.35954153	      0.00000000	      0.00000000	     78.79458551	    -14.13229299	     65.16954280	     46.79260410	     50.48036130	      0.00000000	      0.00000000
      7.55000000	    -23.03211160	      7.54425691	     10.03290547	      0.38493469	      1.21988281	     -0.23927669	      0.00000000	      0.50000000	      0.00000000	      0.25000000	     26.83731164	    -17.19805717	    -13.68946707	     27.78992747	      0.48502573	    -22.49464459	      1.70180558	      0.00000000	      0.00000000	     76.21863671	     -4.58597737	     -6.04718056	    100.92838044	      1.76153255	     10.40550493	     14.35318453	      0.00000000	      0.00000000	    -60.24505147	     -4.40763705	     -5.75778319	     56.97196826	    -28.24780125	     32.10697528	     61.19151011	     48.29768632	      0.00000000	      0.00000000	     77.78493317	    -13.58300796	     62.03423774	     47.62560275	     50.11427558	      0.00000000	      0.00000000
      7.55500000	    -22.99346756	      7.42193451	     10.29151196	      0.38476795	      1.22162161	     -0.23928022	      0.00000000	      0.50000000	      0.00000000	      0.25000000	     26.98567086	    -17.27365966	    -13.66842789	     29.24635286	      0.51044515	    -22.29234455	      0.97567173	      0.00000000	      0.00000000	     76.08989891	     -4.17491127	     -6.02048208	     99.81327645	      1.74207031	     11.23547689	     14.37399839	      0.00000000	      0.00000000	    -60.56965668	     -4.38679578	     -5.74247125	     57.12601839	    -28.34610074	     31.99964841	     61.08094965	     48.26792193	      0.00000000	      0.00000000	     77.95477100	    -13.39677819	     61.85930607	     47.79137229	     50.10914623	      0.00000000	      0.00000000
